<svg width="164" height="63" viewBox="0 0 164 63" fill="none" xmlns="http://www.w3.org/2000/svg">
<path d="M2.12003 57.1648H0V55.9535H5.60652V57.1648H3.47645V62.5066H2.12003V57.1648Z" fill="white"/>
<path d="M10.5696 62.5066L8.85148 60.1932H7.85678V62.5066H6.50036V55.9535H8.99215C9.45434 55.9535 9.86629 56.0429 10.228 56.2216C10.5897 56.3937 10.871 56.6419 11.072 56.9663C11.2796 57.284 11.3835 57.6514 11.3835 58.0684C11.3835 58.4854 11.2796 58.8561 11.072 59.1804C10.8643 59.5048 10.5797 59.7563 10.2179 59.935L12.0968 62.5066H10.5696ZM7.85678 59.0116H8.99215C9.30697 59.0116 9.55146 58.9256 9.72562 58.7535C9.90648 58.5814 9.9969 58.353 9.9969 58.0684C9.9969 57.7904 9.90648 57.5653 9.72562 57.3932C9.54476 57.2211 9.30027 57.135 8.99215 57.135H7.85678V59.0116Z" fill="white"/>
<path d="M16.8357 61.6527H14.1229L13.7511 62.5066H12.2943L15.2583 55.8344H15.7104L18.6644 62.5066H17.2075L16.8357 61.6527ZM15.4793 58.3364L14.5951 60.5506H16.3635L15.4793 58.3364Z" fill="white"/>
<path d="M25.2167 55.9535V62.6258H24.7646L20.9264 58.5747V62.5066H19.57V55.8344H20.0121L23.8603 59.8655V55.9535H25.2167Z" fill="white"/>
<path d="M28.8327 62.6258C28.2701 62.6258 27.7643 62.4967 27.3156 62.2385C26.8735 61.9738 26.5251 61.6196 26.2706 61.1761L27.205 60.4811C27.4194 60.7724 27.6538 61.004 27.9084 61.1761C28.1629 61.3482 28.471 61.4343 28.8327 61.4343C29.1275 61.4343 29.3586 61.3714 29.526 61.2456C29.6935 61.1132 29.7772 60.9345 29.7772 60.7095C29.7772 60.5175 29.7136 60.3719 29.5863 60.2726C29.4657 60.1667 29.248 60.0409 28.9332 59.8953L28.2198 59.5776C27.7108 59.3525 27.3156 59.0911 27.0342 58.7932C26.7529 58.4953 26.6122 58.1279 26.6122 57.6911C26.6122 57.3204 26.706 56.996 26.8936 56.718C27.0878 56.4334 27.3524 56.215 27.6873 56.0627C28.0222 55.9105 28.3973 55.8344 28.8126 55.8344C29.3217 55.8344 29.7605 55.9469 30.1289 56.1719C30.504 56.397 30.7954 56.6982 31.003 57.0755L30.0786 57.7804C29.737 57.2774 29.315 57.0258 28.8126 57.0258C28.5782 57.0258 28.3806 57.0821 28.2198 57.1946C28.0658 57.3005 27.9887 57.4561 27.9887 57.6613C27.9887 57.8334 28.0457 57.9724 28.1595 58.0783C28.2801 58.1776 28.4811 58.2901 28.7624 58.4159L29.516 58.7435C30.0719 58.9885 30.4839 59.2598 30.7518 59.5577C31.0197 59.849 31.1537 60.2163 31.1537 60.6598C31.1537 61.057 31.0532 61.4045 30.8523 61.7024C30.6513 62.0002 30.3734 62.2286 30.0183 62.3875C29.67 62.5463 29.2748 62.6258 28.8327 62.6258Z" fill="white"/>
<path d="M35.1613 55.9535H36.5178V61.2953H39.4215V62.5066H35.1613V55.9535Z" fill="white"/>
<path d="M43.4181 62.6258C42.775 62.6258 42.1856 62.4768 41.6497 62.179C41.1138 61.8811 40.6885 61.474 40.3737 60.9577C40.0588 60.4348 39.9014 59.8589 39.9014 59.2301C39.9014 58.6012 40.0588 58.0287 40.3737 57.5123C40.6885 56.9894 41.1138 56.579 41.6497 56.2812C42.1856 55.9833 42.775 55.8344 43.4181 55.8344C44.0611 55.8344 44.6506 55.9833 45.1864 56.2812C45.729 56.579 46.1577 56.9894 46.4725 57.5123C46.794 58.0287 46.9548 58.6012 46.9548 59.2301C46.9548 59.8589 46.794 60.4348 46.4725 60.9577C46.1577 61.474 45.729 61.8811 45.1864 62.179C44.6506 62.4768 44.0611 62.6258 43.4181 62.6258ZM43.4281 61.3846C43.83 61.3846 44.1917 61.2953 44.5132 61.1166C44.8415 60.9312 45.096 60.6764 45.2769 60.352C45.4644 60.0211 45.5582 59.6471 45.5582 59.2301C45.5582 58.8197 45.4644 58.4523 45.2769 58.1279C45.096 57.797 44.8415 57.5388 44.5132 57.3535C44.1917 57.1681 43.83 57.0755 43.4281 57.0755C43.0195 57.0755 42.6544 57.1681 42.3329 57.3535C42.0114 57.5322 41.7569 57.787 41.5693 58.118C41.3885 58.4424 41.298 58.813 41.298 59.2301C41.298 59.6471 41.3885 60.0211 41.5693 60.352C41.7569 60.6764 42.0114 60.9312 42.3329 61.1166C42.6544 61.2953 43.0195 61.3846 43.4281 61.3846Z" fill="white"/>
<path d="M51.2684 62.6258C50.612 62.6258 50.0125 62.4768 49.4699 62.179C48.934 61.8811 48.5087 61.474 48.1939 60.9577C47.879 60.4348 47.7216 59.8589 47.7216 59.2301C47.7216 58.5946 47.8757 58.0187 48.1838 57.5024C48.4986 56.9861 48.9273 56.579 49.4699 56.2812C50.0125 55.9833 50.612 55.8344 51.2684 55.8344C51.8512 55.8344 52.3803 55.9601 52.8559 56.2117C53.3382 56.4566 53.7401 56.8041 54.0616 57.2542L53.0971 58.0386C52.6282 57.3965 52.0119 57.0755 51.2483 57.0755C50.8263 57.0755 50.4546 57.1681 50.133 57.3535C49.8115 57.5388 49.5603 57.7937 49.3795 58.118C49.2053 58.4424 49.1182 58.813 49.1182 59.2301C49.1182 59.6537 49.2087 60.031 49.3895 60.362C49.5771 60.6929 49.8383 60.9544 50.1732 61.1463C50.5081 61.3317 50.8933 61.4244 51.3287 61.4244C51.7105 61.4244 52.0488 61.3515 52.3435 61.2059C52.6449 61.0603 52.8894 60.8617 53.077 60.6102V60.074H51.2483V58.9123H54.4334V60.8485C54.132 61.378 53.6999 61.8083 53.1372 62.1392C52.5813 62.4636 51.9583 62.6258 51.2684 62.6258Z" fill="white"/>
<path d="M55.6096 55.9535H56.9661V62.5066H55.6096V55.9535Z" fill="white"/>
<path d="M60.5845 62.6258C60.0218 62.6258 59.5161 62.4967 59.0673 62.2385C58.6252 61.9738 58.2769 61.6196 58.0224 61.1761L58.9568 60.4811C59.1712 60.7724 59.4056 61.004 59.6601 61.1761C59.9147 61.3482 60.2228 61.4343 60.5845 61.4343C60.8792 61.4343 61.1103 61.3714 61.2778 61.2456C61.4452 61.1132 61.529 60.9345 61.529 60.7095C61.529 60.5175 61.4653 60.3719 61.3381 60.2726C61.2175 60.1667 60.9998 60.0409 60.685 59.8953L59.9716 59.5776C59.4625 59.3525 59.0673 59.0911 58.786 58.7932C58.5047 58.4953 58.364 58.1279 58.364 57.6911C58.364 57.3204 58.4578 56.996 58.6453 56.718C58.8396 56.4334 59.1042 56.215 59.4391 56.0627C59.774 55.9105 60.1491 55.8344 60.5644 55.8344C61.0735 55.8344 61.5122 55.9469 61.8806 56.1719C62.2557 56.397 62.5471 56.6982 62.7548 57.0755L61.8304 57.7804C61.4888 57.2774 61.0668 57.0258 60.5644 57.0258C60.33 57.0258 60.1324 57.0821 59.9716 57.1946C59.8175 57.3005 59.7405 57.4561 59.7405 57.6613C59.7405 57.8334 59.7975 57.9724 59.9113 58.0783C60.0319 58.1776 60.2328 58.2901 60.5142 58.4159L61.2677 58.7435C61.8237 58.9885 62.2357 59.2598 62.5036 59.5577C62.7715 59.849 62.9055 60.2163 62.9055 60.6598C62.9055 61.057 62.805 61.4045 62.6041 61.7024C62.4031 62.0002 62.1251 62.2286 61.7701 62.3875C61.4218 62.5463 61.0266 62.6258 60.5845 62.6258Z" fill="white"/>
<path d="M65.5941 57.1648H63.4741V55.9535H69.0806V57.1648H66.9506V62.5066H65.5941V57.1648Z" fill="white"/>
<path d="M69.9745 55.9535H71.3309V62.5066H69.9745V55.9535Z" fill="white"/>
<path d="M75.9943 62.6258C75.3446 62.6258 74.7484 62.4768 74.2058 62.179C73.67 61.8811 73.2446 61.474 72.9298 60.9577C72.6217 60.4348 72.4676 59.8589 72.4676 59.2301C72.4676 58.6012 72.625 58.0287 72.9398 57.5123C73.2547 56.9894 73.68 56.579 74.2159 56.2812C74.7584 55.9833 75.3546 55.8344 76.0043 55.8344C76.634 55.8344 77.2033 55.98 77.7124 56.2712C78.2282 56.5559 78.6334 56.953 78.9282 57.4627L77.9033 58.1776C77.4344 57.4428 76.8014 57.0755 76.0043 57.0755C75.5957 57.0755 75.2273 57.1681 74.8991 57.3535C74.5776 57.5388 74.323 57.797 74.1355 58.1279C73.9546 58.4523 73.8642 58.823 73.8642 59.24C73.8642 59.657 73.9546 60.0277 74.1355 60.352C74.323 60.6764 74.5776 60.9312 74.8991 61.1166C75.2273 61.2953 75.5957 61.3846 76.0043 61.3846C76.8014 61.3846 77.4344 61.0173 77.9033 60.2825L78.9282 60.9974C78.6401 61.5071 78.2382 61.9076 77.7225 62.1988C77.2067 62.4834 76.6306 62.6258 75.9943 62.6258Z" fill="white"/>
<path d="M82.1808 62.6258C81.6182 62.6258 81.1124 62.4967 80.6636 62.2385C80.2216 61.9738 79.8732 61.6196 79.6187 61.1761L80.5531 60.4811C80.7675 60.7724 81.0019 61.004 81.2564 61.1761C81.511 61.3482 81.8191 61.4343 82.1808 61.4343C82.4755 61.4343 82.7066 61.3714 82.8741 61.2456C83.0416 61.1132 83.1253 60.9345 83.1253 60.7095C83.1253 60.5175 83.0617 60.3719 82.9344 60.2726C82.8138 60.1667 82.5961 60.0409 82.2813 59.8953L81.5679 59.5776C81.0588 59.3525 80.6636 59.0911 80.3823 58.7932C80.101 58.4953 79.9603 58.1279 79.9603 57.6911C79.9603 57.3204 80.0541 56.996 80.2416 56.718C80.4359 56.4334 80.7005 56.215 81.0354 56.0627C81.3703 55.9105 81.7454 55.8344 82.1607 55.8344C82.6698 55.8344 83.1085 55.9469 83.477 56.1719C83.8521 56.397 84.1434 56.6982 84.3511 57.0755L83.4267 57.7804C83.0851 57.2774 82.6631 57.0258 82.1607 57.0258C81.9263 57.0258 81.7287 57.0821 81.5679 57.1946C81.4139 57.3005 81.3368 57.4561 81.3368 57.6613C81.3368 57.8334 81.3938 57.9724 81.5076 58.0783C81.6282 58.1776 81.8292 58.2901 82.1105 58.4159L82.8641 58.7435C83.42 58.9885 83.832 59.2598 84.0999 59.5577C84.3678 59.849 84.5018 60.2163 84.5018 60.6598C84.5018 61.057 84.4013 61.4045 84.2004 61.7024C83.9994 62.0002 83.7214 62.2286 83.3664 62.3875C83.0181 62.5463 82.6229 62.6258 82.1808 62.6258Z" fill="white"/>
<path d="M91.6543 62.6258C91.0046 62.6258 90.4084 62.4768 89.8658 62.179C89.33 61.8811 88.9046 61.474 88.5898 60.9577C88.2817 60.4348 88.1276 59.8589 88.1276 59.2301C88.1276 58.6012 88.285 58.0287 88.5999 57.5123C88.9147 56.9894 89.34 56.579 89.8759 56.2812C90.4185 55.9833 91.0146 55.8344 91.6644 55.8344C92.294 55.8344 92.8634 55.98 93.3724 56.2712C93.8882 56.5559 94.2935 56.953 94.5882 57.4627L93.5633 58.1776C93.0945 57.4428 92.4615 57.0755 91.6644 57.0755C91.2558 57.0755 90.8874 57.1681 90.5591 57.3535C90.2376 57.5388 89.9831 57.797 89.7955 58.1279C89.6147 58.4523 89.5242 58.823 89.5242 59.24C89.5242 59.657 89.6147 60.0277 89.7955 60.352C89.9831 60.6764 90.2376 60.9312 90.5591 61.1166C90.8874 61.2953 91.2558 61.3846 91.6644 61.3846C92.4615 61.3846 93.0945 61.0173 93.5633 60.2825L94.5882 60.9974C94.3002 61.5071 93.8983 61.9076 93.3825 62.1988C92.8667 62.4834 92.2906 62.6258 91.6543 62.6258Z" fill="white"/>
<path d="M99.5513 61.6527H96.8384L96.4667 62.5066H95.0098L97.9738 55.8344H98.426L101.38 62.5066H99.923L99.5513 61.6527ZM98.1949 58.3364L97.3107 60.5506H99.079L98.1949 58.3364Z" fill="white"/>
<path d="M102.286 55.9535H104.777C105.24 55.9535 105.651 56.0429 106.013 56.2216C106.375 56.3937 106.656 56.6419 106.857 56.9663C107.065 57.284 107.169 57.6514 107.169 58.0684C107.169 58.4854 107.065 58.8561 106.857 59.1804C106.656 59.4981 106.375 59.7464 106.013 59.9251C105.651 60.1038 105.24 60.1932 104.777 60.1932H103.642V62.5066H102.286V55.9535ZM104.777 59.0215C105.092 59.0215 105.337 58.9355 105.511 58.7634C105.692 58.5847 105.782 58.353 105.782 58.0684C105.782 57.7904 105.692 57.5653 105.511 57.3932C105.33 57.2211 105.085 57.135 104.777 57.135H103.642V59.0215H104.777Z" fill="white"/>
<path d="M108.251 55.9535H109.608V62.5066H108.251V55.9535Z" fill="white"/>
<path d="M112.623 57.1648H110.503V55.9535H116.11V57.1648H113.98V62.5066H112.623V57.1648Z" fill="white"/>
<path d="M120.157 61.6527H117.444L117.072 62.5066H115.615L118.579 55.8344H119.031L121.985 62.5066H120.528L120.157 61.6527ZM118.8 58.3364L117.916 60.5506H119.684L118.8 58.3364Z" fill="white"/>
<path d="M122.891 55.9535H124.247V61.2953H127.151V62.5066H122.891V55.9535Z" fill="white"/>
<path d="M133.641 62.6258C132.984 62.6258 132.385 62.4768 131.842 62.179C131.306 61.8811 130.881 61.474 130.566 60.9577C130.251 60.4348 130.094 59.8589 130.094 59.2301C130.094 58.5946 130.248 58.0187 130.556 57.5024C130.871 56.9861 131.299 56.579 131.842 56.2812C132.385 55.9833 132.984 55.8344 133.641 55.8344C134.223 55.8344 134.752 55.9601 135.228 56.2117C135.71 56.4566 136.112 56.8041 136.434 57.2542L135.469 58.0386C135 57.3965 134.384 57.0755 133.62 57.0755C133.198 57.0755 132.827 57.1681 132.505 57.3535C132.184 57.5388 131.932 57.7937 131.752 58.118C131.577 58.4424 131.49 58.813 131.49 59.2301C131.49 59.6537 131.581 60.031 131.762 60.362C131.949 60.6929 132.21 60.9544 132.545 61.1463C132.88 61.3317 133.265 61.4244 133.701 61.4244C134.083 61.4244 134.421 61.3515 134.716 61.2059C135.017 61.0603 135.262 60.8617 135.449 60.6102V60.074H133.62V58.9123H136.805V60.8485C136.504 61.378 136.072 61.8083 135.509 62.1392C134.953 62.4636 134.33 62.6258 133.641 62.6258Z" fill="white"/>
<path d="M142.051 62.5066L140.333 60.1932H139.338V62.5066H137.982V55.9535H140.474C140.936 55.9535 141.348 56.0429 141.709 56.2216C142.071 56.3937 142.352 56.6419 142.553 56.9663C142.761 57.284 142.865 57.6514 142.865 58.0684C142.865 58.4854 142.761 58.8561 142.553 59.1804C142.346 59.5048 142.061 59.7563 141.699 59.935L143.578 62.5066H142.051ZM139.338 59.0116H140.474C140.788 59.0116 141.033 58.9256 141.207 58.7535C141.388 58.5814 141.478 58.353 141.478 58.0684C141.478 57.7904 141.388 57.5653 141.207 57.3932C141.026 57.2211 140.782 57.135 140.474 57.135H139.338V59.0116Z" fill="white"/>
<path d="M147.396 62.6258C146.753 62.6258 146.164 62.4768 145.628 62.179C145.092 61.8811 144.667 61.474 144.352 60.9577C144.037 60.4348 143.88 59.8589 143.88 59.2301C143.88 58.6012 144.037 58.0287 144.352 57.5123C144.667 56.9894 145.092 56.579 145.628 56.2812C146.164 55.9833 146.753 55.8344 147.396 55.8344C148.039 55.8344 148.629 55.9833 149.165 56.2812C149.707 56.579 150.136 56.9894 150.451 57.5123C150.772 58.0287 150.933 58.6012 150.933 59.2301C150.933 59.8589 150.772 60.4348 150.451 60.9577C150.136 61.474 149.707 61.8811 149.165 62.179C148.629 62.4768 148.039 62.6258 147.396 62.6258ZM147.406 61.3846C147.808 61.3846 148.17 61.2953 148.492 61.1166C148.82 60.9312 149.074 60.6764 149.255 60.352C149.443 60.0211 149.536 59.6471 149.536 59.2301C149.536 58.8197 149.443 58.4523 149.255 58.1279C149.074 57.797 148.82 57.5388 148.492 57.3535C148.17 57.1681 147.808 57.0755 147.406 57.0755C146.998 57.0755 146.633 57.1681 146.311 57.3535C145.99 57.5322 145.735 57.787 145.548 58.118C145.367 58.4424 145.276 58.813 145.276 59.2301C145.276 59.6471 145.367 60.0211 145.548 60.352C145.735 60.6764 145.99 60.9312 146.311 61.1166C146.633 61.2953 146.998 61.3846 147.406 61.3846Z" fill="white"/>
<path d="M154.835 62.6258C154.292 62.6258 153.806 62.5132 153.378 62.2882C152.956 62.0565 152.624 61.7288 152.383 61.3052C152.142 60.875 152.021 60.3719 152.021 59.796V55.9535H153.378V59.8953C153.378 60.3719 153.512 60.7393 153.78 60.9974C154.054 61.2556 154.406 61.3846 154.835 61.3846C155.27 61.3846 155.622 61.2556 155.89 60.9974C156.158 60.7393 156.292 60.3719 156.292 59.8953V55.9535H157.648V59.796C157.648 60.3719 157.524 60.875 157.276 61.3052C157.035 61.7288 156.7 62.0565 156.271 62.2882C155.849 62.5132 155.371 62.6258 154.835 62.6258Z" fill="white"/>
<path d="M159.117 55.9535H161.609C162.071 55.9535 162.483 56.0429 162.845 56.2216C163.206 56.3937 163.488 56.6419 163.689 56.9663C163.896 57.284 164 57.6514 164 58.0684C164 58.4854 163.896 58.8561 163.689 59.1804C163.488 59.4981 163.206 59.7464 162.845 59.9251C162.483 60.1038 162.071 60.1932 161.609 60.1932H160.473V62.5066H159.117V55.9535ZM161.609 59.0215C161.924 59.0215 162.168 58.9355 162.342 58.7634C162.523 58.5847 162.613 58.353 162.613 58.0684C162.613 57.7904 162.523 57.5653 162.342 57.3932C162.161 57.2211 161.917 57.135 161.609 57.135H160.473V59.0215H161.609Z" fill="white"/>
<rect y="0.245422" width="164" height="46.0307" fill="white"/>
<path d="M61.4219 10.5574H72.9309V27.0868H105.127V35.7108H61.4219V10.5574Z" fill="#16676B"/>
<path d="M28.4915 19.1814H10.0625V10.5574H58.5025V19.1814H40.0006V35.7108H28.4915V19.1814Z" fill="#16676B"/>
<path d="M153.941 35.7108H119.341C117.593 35.7108 115.942 35.3874 114.388 34.7406C112.834 34.0699 111.474 33.1715 110.309 32.0456C109.168 30.8957 108.257 29.5542 107.577 28.0211C106.922 26.4879 106.594 24.8589 106.594 23.1341C106.594 21.4093 106.922 19.7803 107.577 18.2472C108.257 16.714 109.168 15.3845 110.309 14.2586C111.474 13.1087 112.834 12.2104 114.388 11.5636C115.942 10.8928 117.593 10.5574 119.341 10.5574H153.941V19.9001H121.708C120.689 19.9001 119.827 20.1876 119.123 20.7625C118.418 21.3375 118.066 22.128 118.066 23.1341C118.066 24.1403 118.418 24.9308 119.123 25.5057C119.827 26.0807 120.689 26.3681 121.708 26.3681H153.941V35.7108Z" fill="#16676B"/>
</svg>
